<mxfile host="app.diagrams.net" agent="Mozilla/5.0 (Windows NT 10.0; Win64; x64) AppleWebKit/537.36 (KHTML, like Gecko) Chrome/130.0.0.0 Safari/537.36" version="24.8.3">
  <diagram name="Page-1" id="w5JS02DXAzdooUKlRMxg">
    <mxGraphModel dx="2591" dy="2191" grid="1" gridSize="10" guides="1" tooltips="1" connect="1" arrows="1" fold="1" page="1" pageScale="1" pageWidth="827" pageHeight="1169" math="0" shadow="0">
      <root>
        <mxCell id="0" />
        <mxCell id="1" parent="0" />
        <mxCell id="QK76FcHwoOdLv8DVT_cV-28" value="" style="whiteSpace=wrap;html=1;aspect=fixed;fillColor=none;" vertex="1" parent="1">
          <mxGeometry x="130" y="-50" width="740" height="740" as="geometry" />
        </mxCell>
        <mxCell id="QK76FcHwoOdLv8DVT_cV-18" style="rounded=0;orthogonalLoop=1;jettySize=auto;html=1;exitX=1;exitY=0.5;exitDx=0;exitDy=0;dashed=1;endArrow=open;endFill=0;" edge="1" parent="1" source="QK76FcHwoOdLv8DVT_cV-1" target="QK76FcHwoOdLv8DVT_cV-17">
          <mxGeometry relative="1" as="geometry" />
        </mxCell>
        <mxCell id="QK76FcHwoOdLv8DVT_cV-23" value="&amp;lt;&amp;lt; extend&amp;gt;&amp;gt;" style="edgeLabel;html=1;align=center;verticalAlign=middle;resizable=0;points=[];" vertex="1" connectable="0" parent="QK76FcHwoOdLv8DVT_cV-18">
          <mxGeometry x="-0.0032" y="1" relative="1" as="geometry">
            <mxPoint as="offset" />
          </mxGeometry>
        </mxCell>
        <mxCell id="QK76FcHwoOdLv8DVT_cV-21" style="rounded=0;orthogonalLoop=1;jettySize=auto;html=1;exitX=1;exitY=0.5;exitDx=0;exitDy=0;entryX=0;entryY=0.5;entryDx=0;entryDy=0;dashed=1;endArrow=open;endFill=0;" edge="1" parent="1" source="QK76FcHwoOdLv8DVT_cV-1" target="QK76FcHwoOdLv8DVT_cV-20">
          <mxGeometry relative="1" as="geometry" />
        </mxCell>
        <mxCell id="QK76FcHwoOdLv8DVT_cV-24" value="&amp;lt;&amp;lt; extend&amp;gt;&amp;gt;" style="edgeLabel;html=1;align=center;verticalAlign=middle;resizable=0;points=[];" vertex="1" connectable="0" parent="QK76FcHwoOdLv8DVT_cV-21">
          <mxGeometry x="0.0067" y="2" relative="1" as="geometry">
            <mxPoint as="offset" />
          </mxGeometry>
        </mxCell>
        <mxCell id="QK76FcHwoOdLv8DVT_cV-22" style="rounded=0;orthogonalLoop=1;jettySize=auto;html=1;exitX=1;exitY=0.5;exitDx=0;exitDy=0;entryX=0;entryY=0.5;entryDx=0;entryDy=0;dashed=1;endArrow=open;endFill=0;" edge="1" parent="1" source="QK76FcHwoOdLv8DVT_cV-1" target="QK76FcHwoOdLv8DVT_cV-19">
          <mxGeometry relative="1" as="geometry" />
        </mxCell>
        <mxCell id="QK76FcHwoOdLv8DVT_cV-25" value="&amp;lt;&amp;lt; extend&amp;gt;&amp;gt;" style="edgeLabel;html=1;align=center;verticalAlign=middle;resizable=0;points=[];" vertex="1" connectable="0" parent="QK76FcHwoOdLv8DVT_cV-22">
          <mxGeometry x="-0.1578" y="2" relative="1" as="geometry">
            <mxPoint as="offset" />
          </mxGeometry>
        </mxCell>
        <mxCell id="QK76FcHwoOdLv8DVT_cV-32" style="rounded=0;orthogonalLoop=1;jettySize=auto;html=1;exitX=0.5;exitY=1;exitDx=0;exitDy=0;entryX=0;entryY=0;entryDx=0;entryDy=0;endArrow=open;endFill=0;dashed=1;" edge="1" parent="1" source="QK76FcHwoOdLv8DVT_cV-1" target="QK76FcHwoOdLv8DVT_cV-31">
          <mxGeometry relative="1" as="geometry" />
        </mxCell>
        <mxCell id="QK76FcHwoOdLv8DVT_cV-35" value="&amp;lt;&amp;lt; include&amp;gt;&amp;gt;" style="edgeLabel;html=1;align=center;verticalAlign=middle;resizable=0;points=[];" vertex="1" connectable="0" parent="QK76FcHwoOdLv8DVT_cV-32">
          <mxGeometry x="0.0748" y="1" relative="1" as="geometry">
            <mxPoint as="offset" />
          </mxGeometry>
        </mxCell>
        <mxCell id="QK76FcHwoOdLv8DVT_cV-1" value="Registar produto" style="ellipse;whiteSpace=wrap;html=1;fontSize=17;" vertex="1" parent="1">
          <mxGeometry x="280" y="100" width="120" height="90" as="geometry" />
        </mxCell>
        <mxCell id="QK76FcHwoOdLv8DVT_cV-5" style="rounded=0;orthogonalLoop=1;jettySize=auto;html=1;exitX=0.5;exitY=0.5;exitDx=0;exitDy=0;exitPerimeter=0;entryX=0;entryY=1;entryDx=0;entryDy=0;endArrow=none;endFill=0;" edge="1" parent="1" source="QK76FcHwoOdLv8DVT_cV-2" target="QK76FcHwoOdLv8DVT_cV-1">
          <mxGeometry relative="1" as="geometry">
            <mxPoint x="350" y="240" as="targetPoint" />
          </mxGeometry>
        </mxCell>
        <mxCell id="QK76FcHwoOdLv8DVT_cV-2" value="Funcionário" style="shape=umlActor;verticalLabelPosition=bottom;verticalAlign=top;html=1;outlineConnect=0;" vertex="1" parent="1">
          <mxGeometry x="10" y="280" width="30" height="60" as="geometry" />
        </mxCell>
        <mxCell id="QK76FcHwoOdLv8DVT_cV-7" style="edgeStyle=orthogonalEdgeStyle;rounded=0;orthogonalLoop=1;jettySize=auto;html=1;exitX=0.5;exitY=0.5;exitDx=0;exitDy=0;exitPerimeter=0;" edge="1" parent="1" source="QK76FcHwoOdLv8DVT_cV-6">
          <mxGeometry relative="1" as="geometry">
            <mxPoint x="24.666666666666742" y="380" as="targetPoint" />
          </mxGeometry>
        </mxCell>
        <mxCell id="QK76FcHwoOdLv8DVT_cV-6" value="Adminstrador" style="shape=umlActor;verticalLabelPosition=bottom;verticalAlign=top;html=1;outlineConnect=0;" vertex="1" parent="1">
          <mxGeometry x="10" y="560" width="30" height="60" as="geometry" />
        </mxCell>
        <mxCell id="QK76FcHwoOdLv8DVT_cV-33" style="rounded=0;orthogonalLoop=1;jettySize=auto;html=1;exitX=1;exitY=0.5;exitDx=0;exitDy=0;endArrow=open;endFill=0;dashed=1;" edge="1" parent="1" source="QK76FcHwoOdLv8DVT_cV-8" target="QK76FcHwoOdLv8DVT_cV-31">
          <mxGeometry relative="1" as="geometry" />
        </mxCell>
        <mxCell id="QK76FcHwoOdLv8DVT_cV-36" value="&amp;lt;&amp;lt; include&amp;gt;&amp;gt;" style="edgeLabel;html=1;align=center;verticalAlign=middle;resizable=0;points=[];" vertex="1" connectable="0" parent="QK76FcHwoOdLv8DVT_cV-33">
          <mxGeometry x="-0.1715" y="1" relative="1" as="geometry">
            <mxPoint as="offset" />
          </mxGeometry>
        </mxCell>
        <mxCell id="QK76FcHwoOdLv8DVT_cV-8" value="Registar Cliente" style="ellipse;whiteSpace=wrap;html=1;fontSize=17;" vertex="1" parent="1">
          <mxGeometry x="294" y="265" width="120" height="90" as="geometry" />
        </mxCell>
        <mxCell id="QK76FcHwoOdLv8DVT_cV-9" style="rounded=0;orthogonalLoop=1;jettySize=auto;html=1;exitX=0.5;exitY=0.5;exitDx=0;exitDy=0;exitPerimeter=0;entryX=0.05;entryY=0.61;entryDx=0;entryDy=0;entryPerimeter=0;endArrow=none;endFill=0;" edge="1" parent="1" source="QK76FcHwoOdLv8DVT_cV-2" target="QK76FcHwoOdLv8DVT_cV-8">
          <mxGeometry relative="1" as="geometry" />
        </mxCell>
        <mxCell id="QK76FcHwoOdLv8DVT_cV-34" style="rounded=0;orthogonalLoop=1;jettySize=auto;html=1;exitX=1;exitY=0.5;exitDx=0;exitDy=0;endArrow=open;endFill=0;dashed=1;" edge="1" parent="1" source="QK76FcHwoOdLv8DVT_cV-10" target="QK76FcHwoOdLv8DVT_cV-31">
          <mxGeometry relative="1" as="geometry" />
        </mxCell>
        <mxCell id="QK76FcHwoOdLv8DVT_cV-37" value="&amp;lt;&amp;lt; include&amp;gt;&amp;gt;" style="edgeLabel;html=1;align=center;verticalAlign=middle;resizable=0;points=[];" vertex="1" connectable="0" parent="QK76FcHwoOdLv8DVT_cV-34">
          <mxGeometry x="0.1238" y="1" relative="1" as="geometry">
            <mxPoint as="offset" />
          </mxGeometry>
        </mxCell>
        <mxCell id="QK76FcHwoOdLv8DVT_cV-10" value="&lt;span id=&quot;docs-internal-guid-8933e412-7fff-4376-d042-610fba11e0b7&quot;&gt;&lt;span style=&quot;font-size: 12pt; font-family: Lexend, sans-serif; background-color: transparent; font-variant-numeric: normal; font-variant-east-asian: normal; font-variant-alternates: normal; font-variant-position: normal; vertical-align: baseline; white-space-collapse: preserve;&quot;&gt;realizar operações de estoque&lt;/span&gt;&lt;/span&gt;" style="ellipse;whiteSpace=wrap;html=1;fontSize=17;" vertex="1" parent="1">
          <mxGeometry x="280" y="390" width="120" height="90" as="geometry" />
        </mxCell>
        <mxCell id="QK76FcHwoOdLv8DVT_cV-11" style="rounded=0;orthogonalLoop=1;jettySize=auto;html=1;exitX=0;exitY=0.3333333333333333;exitDx=0;exitDy=0;exitPerimeter=0;entryX=0.035;entryY=0.742;entryDx=0;entryDy=0;entryPerimeter=0;endArrow=none;endFill=0;" edge="1" parent="1" source="QK76FcHwoOdLv8DVT_cV-2" target="QK76FcHwoOdLv8DVT_cV-10">
          <mxGeometry relative="1" as="geometry" />
        </mxCell>
        <mxCell id="QK76FcHwoOdLv8DVT_cV-12" value="&lt;span id=&quot;docs-internal-guid-8933e412-7fff-4376-d042-610fba11e0b7&quot;&gt;&lt;span style=&quot;font-size: 12pt; font-family: Lexend, sans-serif; background-color: transparent; font-variant-numeric: normal; font-variant-east-asian: normal; font-variant-alternates: normal; font-variant-position: normal; vertical-align: baseline; white-space-collapse: preserve;&quot;&gt;Entrada&lt;/span&gt;&lt;/span&gt;" style="ellipse;whiteSpace=wrap;html=1;fontSize=17;" vertex="1" parent="1">
          <mxGeometry x="600" y="380" width="120" height="50" as="geometry" />
        </mxCell>
        <mxCell id="QK76FcHwoOdLv8DVT_cV-13" style="rounded=0;orthogonalLoop=1;jettySize=auto;html=1;exitX=1;exitY=0.5;exitDx=0;exitDy=0;entryX=0.067;entryY=0.665;entryDx=0;entryDy=0;entryPerimeter=0;endArrow=open;endFill=0;dashed=1;" edge="1" parent="1" source="QK76FcHwoOdLv8DVT_cV-10" target="QK76FcHwoOdLv8DVT_cV-12">
          <mxGeometry relative="1" as="geometry" />
        </mxCell>
        <mxCell id="QK76FcHwoOdLv8DVT_cV-26" value="&amp;lt;&amp;lt; extend&amp;gt;&amp;gt;" style="edgeLabel;html=1;align=center;verticalAlign=middle;resizable=0;points=[];" vertex="1" connectable="0" parent="QK76FcHwoOdLv8DVT_cV-13">
          <mxGeometry x="0.0193" relative="1" as="geometry">
            <mxPoint as="offset" />
          </mxGeometry>
        </mxCell>
        <mxCell id="QK76FcHwoOdLv8DVT_cV-14" style="rounded=0;orthogonalLoop=1;jettySize=auto;html=1;entryX=0.067;entryY=0.665;entryDx=0;entryDy=0;entryPerimeter=0;endArrow=open;endFill=0;dashed=1;" edge="1" target="QK76FcHwoOdLv8DVT_cV-15" parent="1" source="QK76FcHwoOdLv8DVT_cV-10">
          <mxGeometry relative="1" as="geometry">
            <mxPoint x="390" y="555" as="sourcePoint" />
          </mxGeometry>
        </mxCell>
        <mxCell id="QK76FcHwoOdLv8DVT_cV-27" value="&amp;lt;&amp;lt; extend&amp;gt;&amp;gt;" style="edgeLabel;html=1;align=center;verticalAlign=middle;resizable=0;points=[];" vertex="1" connectable="0" parent="QK76FcHwoOdLv8DVT_cV-14">
          <mxGeometry x="-0.0653" y="-1" relative="1" as="geometry">
            <mxPoint as="offset" />
          </mxGeometry>
        </mxCell>
        <mxCell id="QK76FcHwoOdLv8DVT_cV-15" value="&lt;span id=&quot;docs-internal-guid-8933e412-7fff-4376-d042-610fba11e0b7&quot;&gt;&lt;span style=&quot;font-size: 12pt; font-family: Lexend, sans-serif; background-color: transparent; font-variant-numeric: normal; font-variant-east-asian: normal; font-variant-alternates: normal; font-variant-position: normal; vertical-align: baseline; white-space-collapse: preserve;&quot;&gt;Saída&lt;/span&gt;&lt;/span&gt;" style="ellipse;whiteSpace=wrap;html=1;fontSize=17;" vertex="1" parent="1">
          <mxGeometry x="600" y="510" width="120" height="50" as="geometry" />
        </mxCell>
        <mxCell id="QK76FcHwoOdLv8DVT_cV-17" value="&lt;span id=&quot;docs-internal-guid-8933e412-7fff-4376-d042-610fba11e0b7&quot;&gt;&lt;span style=&quot;font-size: 12pt; font-family: Lexend, sans-serif; background-color: transparent; font-variant-numeric: normal; font-variant-east-asian: normal; font-variant-alternates: normal; font-variant-position: normal; vertical-align: baseline; white-space-collapse: preserve;&quot;&gt;Actualizar&lt;/span&gt;&lt;/span&gt;" style="ellipse;whiteSpace=wrap;html=1;fontSize=17;" vertex="1" parent="1">
          <mxGeometry x="590" y="60" width="180" height="60" as="geometry" />
        </mxCell>
        <mxCell id="QK76FcHwoOdLv8DVT_cV-19" value="&lt;span id=&quot;docs-internal-guid-8933e412-7fff-4376-d042-610fba11e0b7&quot;&gt;&lt;span style=&quot;font-size: 12pt; font-family: Lexend, sans-serif; background-color: transparent; font-variant-numeric: normal; font-variant-east-asian: normal; font-variant-alternates: normal; font-variant-position: normal; vertical-align: baseline; white-space-collapse: preserve;&quot;&gt;Eliminar&lt;/span&gt;&lt;/span&gt;" style="ellipse;whiteSpace=wrap;html=1;fontSize=17;" vertex="1" parent="1">
          <mxGeometry x="590" y="205" width="180" height="60" as="geometry" />
        </mxCell>
        <mxCell id="QK76FcHwoOdLv8DVT_cV-20" value="&lt;span id=&quot;docs-internal-guid-8933e412-7fff-4376-d042-610fba11e0b7&quot;&gt;&lt;span style=&quot;font-size: 12pt; font-family: Lexend, sans-serif; background-color: transparent; font-variant-numeric: normal; font-variant-east-asian: normal; font-variant-alternates: normal; font-variant-position: normal; vertical-align: baseline; white-space-collapse: preserve;&quot;&gt;Consultar&lt;/span&gt;&lt;/span&gt;" style="ellipse;whiteSpace=wrap;html=1;fontSize=17;" vertex="1" parent="1">
          <mxGeometry x="580" y="140" width="190" height="50" as="geometry" />
        </mxCell>
        <mxCell id="QK76FcHwoOdLv8DVT_cV-29" value="SISTEMA DE GESTAO DE FARMACIA" style="text;html=1;align=center;verticalAlign=middle;resizable=0;points=[];autosize=1;strokeColor=none;fillColor=none;" vertex="1" parent="1">
          <mxGeometry x="385" y="-40" width="230" height="30" as="geometry" />
        </mxCell>
        <mxCell id="QK76FcHwoOdLv8DVT_cV-31" value="Autenticação" style="ellipse;whiteSpace=wrap;html=1;fontSize=17;" vertex="1" parent="1">
          <mxGeometry x="515" y="287.5" width="100" height="45" as="geometry" />
        </mxCell>
      </root>
    </mxGraphModel>
  </diagram>
</mxfile>
